<svg xmlns="http://www.w3.org/2000/svg" xmlns:xlink="http://www.w3.org/1999/xlink" width="500" zoomAndPan="magnify" viewBox="0 0 375 225" height="300" preserveAspectRatio="xMidYMid meet" version="1.0"><defs><g/><clipPath id="f95fa1966c"><path d="M 39.4375 137.636719 L 245.644531 137.636719 L 245.644531 148.261719 L 39.4375 148.261719 Z M 39.4375 137.636719 " clip-rule="nonzero"/></clipPath><clipPath id="d981988deb"><path d="M 254.789062 76.785156 L 348.03125 76.785156 L 348.03125 85.25 L 254.789062 85.25 Z M 254.789062 76.785156 " clip-rule="nonzero"/></clipPath></defs><g clip-path="url(#f95fa1966c)"><path fill="#ffffff" d="M 39.4375 137.636719 L 245.644531 137.636719 L 245.644531 148.261719 L 39.4375 148.261719 Z M 39.4375 137.636719 " fill-opacity="1" fill-rule="nonzero"/></g><g clip-path="url(#d981988deb)"><path fill="#ffffff" d="M 254.789062 76.785156 L 348.023438 76.785156 L 348.023438 85.25 L 254.789062 85.25 Z M 254.789062 76.785156 " fill-opacity="1" fill-rule="nonzero"/></g><g fill="#ffffff" fill-opacity="1"><g transform="translate(33.368384, 119.44108)"><g><path d="M 15.546875 0 L 25.359375 0 L 25.359375 -34 L 39.0625 -34 L 39.0625 -43.1875 L 1.84375 -43.1875 L 1.84375 -34 L 15.546875 -34 Z M 15.546875 0 "/></g></g></g><g fill="#ffffff" fill-opacity="1"><g transform="translate(87.045464, 119.44108)"><g><path d="M 25.671875 0.859375 C 39.1875 0.859375 48.75 -8.390625 48.75 -21.59375 C 48.75 -34.796875 39.1875 -44.0625 25.671875 -44.0625 C 12.15625 -44.0625 2.65625 -34.796875 2.65625 -21.59375 C 2.65625 -8.390625 12.15625 0.859375 25.671875 0.859375 Z M 12.65625 -21.59375 C 12.65625 -29.375 18.015625 -34.734375 25.671875 -34.734375 C 33.375 -34.734375 38.6875 -29.375 38.6875 -21.59375 C 38.6875 -13.828125 33.375 -8.453125 25.671875 -8.453125 C 18.015625 -8.453125 12.65625 -13.828125 12.65625 -21.59375 Z M 12.65625 -21.59375 "/></g></g></g><g fill="#ffffff" fill-opacity="1"><g transform="translate(151.210557, 119.44108)"><g><path d="M 5.1875 0 L 14.9375 0 L 14.9375 -26.46875 L 34 0 L 42.328125 0 L 42.328125 -43.1875 L 32.578125 -43.1875 L 32.578125 -16.90625 L 13.515625 -43.1875 L 5.1875 -43.1875 Z M 5.1875 0 "/></g></g></g><g fill="#ffffff" fill-opacity="1"><g transform="translate(211.488919, 119.44108)"><g><path d="M 5.1875 0 L 34.25 0 L 34.25 -8.328125 L 14.9375 -8.328125 L 14.9375 -17.765625 L 31.90625 -17.765625 L 31.90625 -25.984375 L 14.9375 -25.984375 L 14.9375 -34.921875 L 33.5625 -34.921875 L 33.5625 -43.1875 L 5.1875 -43.1875 Z M 5.1875 0 "/></g></g></g><g fill="#ffffff" fill-opacity="1"><g transform="translate(261.174599, 146.447323)"><g><path d="M 5.1875 0 L 15 0 L 15 -43.1875 L 5.1875 -43.1875 Z M 5.1875 0 "/></g></g></g><g fill="#ffffff" fill-opacity="1"><g transform="translate(294.12244, 146.447323)"><g><path d="M 5.1875 0 L 14.9375 0 L 14.9375 -26.46875 L 34 0 L 42.328125 0 L 42.328125 -43.1875 L 32.578125 -43.1875 L 32.578125 -16.90625 L 13.515625 -43.1875 L 5.1875 -43.1875 Z M 5.1875 0 "/></g></g></g></svg>